Coordinates
version=1
nRows=65
nColumns=12
inDegrees=yes

Units are S.I. units (second, meters, Newtons, ...)
Angles are in degrees

endheader
time	SC_y	SC_z	SC_x	AC_y	AC_z	AC_x	GH_y	GH_z	GH_yy	EL_x	PS_y
       0.0              -31.52          39.64           83.6          52.46         -3.353          14.56         -104.5          33.47         -113.7          137.1          76.42
    0.0421              -31.53          39.63          83.59          52.45         -3.354          14.56         -104.5          33.47         -113.7          137.1          76.42
   0.08419              -31.53          39.63          83.58          52.45         -3.356          14.55         -104.4          33.46         -113.7          137.0          76.42
    0.1263              -31.53          39.62          83.56          52.45         -3.357          14.55         -104.4          33.45         -113.7          137.0          76.42
    0.1684              -31.53          39.61          83.55          52.44         -3.358          14.54         -104.4          33.45         -113.7          137.0          76.42
    0.2105              -31.54          39.61          83.54          52.44          -3.36          14.54         -104.3          33.44         -113.7          137.0          76.42
    0.2526              -31.54           39.6          83.52          52.44         -3.361          14.53         -104.3          33.43         -113.7          137.0          76.42
    0.2947              -31.54          39.59          83.51          52.43         -3.363          14.53         -104.3          33.42         -113.7          136.9          76.43
    0.3368              -31.55          39.59          83.49          52.43         -3.365          14.52         -104.2          33.41         -113.7          136.9          76.43
    0.3789              -31.55          39.58          83.47          52.42         -3.367          14.51         -104.2           33.4         -113.7          136.9          76.43
     0.421              -31.56          39.57          83.45          52.41         -3.369          14.51         -104.1          33.39         -113.7          136.9          76.43
     0.463              -31.56          39.56          83.43          52.41         -3.371           14.5         -104.1          33.38         -113.7          136.8          76.43
    0.5051              -31.57          39.55          83.41           52.4         -3.374          14.49         -104.0          33.37         -113.7          136.8          76.43
    0.5472              -31.57          39.54          83.38          52.39         -3.377          14.48         -104.0          33.36         -113.7          136.8          76.44
    0.5893              -31.58          39.53          83.35          52.39         -3.379          14.47         -103.9          33.34         -113.7          136.7          76.44
    0.6314              -31.58          39.51          83.32          52.38         -3.383          14.46         -103.9          33.33         -113.7          136.7          76.44
    0.6735              -31.59           39.5          83.29          52.37         -3.386          14.45         -103.8          33.31         -113.7          136.7          76.44
    0.7156               -31.6          39.48          83.26          52.36          -3.39          14.43         -103.7          33.29         -113.7          136.6          76.45
    0.7577              -31.61          39.47          83.22          52.35         -3.394          14.42         -103.6          33.27         -113.7          136.6          76.45
    0.7998              -31.61          39.45          83.18          52.33         -3.398           14.4         -103.5          33.25         -113.6          136.5          76.45
    0.8419              -31.62          39.43          83.13          52.32         -3.403          14.39         -103.4          33.22         -113.6          136.4          76.46
     0.884              -31.63           39.4          83.08          52.31         -3.408          14.37         -103.3           33.2         -113.6          136.4          76.46
    0.9261              -31.65          39.38          83.03          52.29         -3.414          14.35         -103.2          33.17         -113.6          136.3          76.46
    0.9682              -31.66          39.35          82.97          52.27         -3.421          14.32         -103.0          33.14         -113.6          136.2          76.47
      1.01              -31.67          39.32           82.9          52.25         -3.428           14.3         -102.9           33.1         -113.6          136.1          76.47
     1.052              -31.69          39.29          82.82          52.23         -3.436          14.27         -102.7          33.06         -113.6          136.0          76.48
     1.094              -31.71          39.25          82.74          52.21         -3.445          14.24         -102.5          33.01         -113.6          135.9          76.49
     1.137              -31.73          39.21          82.64          52.18         -3.455           14.2         -102.3          32.96         -113.6          135.8           76.5
     1.179              -31.75          39.16          82.53          52.15         -3.467          14.16         -102.0          32.91         -113.6          135.6           76.5
     1.221              -31.78           39.1          82.41          52.11          -3.48          14.11         -101.7          32.84         -113.6          135.5          76.51
     1.263              -31.81          39.04          82.27          52.07         -3.495          14.06         -101.4          32.77         -113.5          135.3          76.52
     1.305              -31.84          38.97          82.11          52.02         -3.512           14.0         -101.0          32.68         -113.5          135.1          76.54
     1.347              -31.88          38.88          81.92          51.97         -3.532          13.93         -100.6          32.58         -113.5          134.8          76.55
     1.389              -31.93          38.79           81.7           51.9         -3.555          13.85         -100.1          32.47         -113.5          134.5          76.57
     1.431              -31.98          38.67          81.45          51.83         -3.582          13.76         -99.53          32.33         -113.4          134.2          76.59
     1.473              -32.05          38.54          81.15          51.74         -3.614          13.64         -98.84          32.18         -113.4          133.8          76.61
     1.515              -32.12          38.38           80.8          51.64         -3.651          13.51         -98.03          31.99         -113.4          133.3          76.64
     1.558              -32.21          38.19          80.37          51.52         -3.697          13.35         -97.05          31.76         -113.3          132.7          76.68
       1.6              -32.32          37.96          79.86          51.37         -3.751          13.16         -95.86          31.49         -113.3          132.0          76.72
     1.642              -32.46          37.68          79.23          51.18         -3.818          12.92         -94.41          31.16         -113.2          131.2          76.77
     1.684              -32.62          37.34          78.45          50.96         -3.901          12.63         -92.62          30.75         -113.1          130.2          76.83
     1.726              -32.83           36.9          77.49          50.67         -4.004          12.27         -90.39          30.24         -113.0          128.9          76.91
     1.768              -33.09          36.36          76.27          50.32         -4.133          11.81         -87.58          29.59         -112.9          127.2           77.0
      1.81              -33.42          35.67          74.72          49.87         -4.298          11.23         -84.01          28.77         -112.7          125.1          77.13
     1.852              -33.84          34.78          72.74          49.29         -4.509          10.49         -79.44          27.72         -112.4          122.5          77.29
     1.894              -34.38          33.64          70.19          48.54         -4.779          9.532         -73.57          26.38         -112.2          119.1          77.49
     1.936              -35.07          32.19          66.94          47.59         -5.125          8.313         -66.08          24.66         -111.8          114.7          77.75
     1.978              -35.94          30.36          62.86           46.4          -5.56           6.78         -56.65           22.5         -111.3          109.2          78.07
     2.021               -37.0          28.14          57.88          44.95         -6.089          4.913         -45.17          19.86         -110.7          102.5          78.47
     2.063              -38.23          25.56           52.1          43.26         -6.703          2.748         -31.86          16.81         -110.1          94.78          78.93
     2.105              -39.56          22.77          45.85          41.44         -7.368         0.4032         -17.44           13.5         -109.4          86.39          79.43
     2.147               -40.9          19.97           39.6          39.61         -8.033         -1.941         -3.031           10.2         -108.6           78.0          79.93
     2.189              -42.13          17.39          33.83          37.93         -8.647         -4.106          10.28          7.145         -108.0          70.25          80.39
     2.231              -43.19          15.17          28.85          36.47         -9.176         -5.974          21.76          4.511         -107.4          63.56          80.79
     2.273              -44.06          13.34          24.77          35.28         -9.611         -7.507          31.19           2.35         -106.9          58.07          81.11
     2.315              -44.75          11.89          21.52          34.33         -9.956         -8.726          38.68         0.6306         -106.6          53.71          81.37
     2.357              -45.29          10.75          18.97          33.59         -10.23          -9.68          44.55        -0.7152         -106.3          50.29          81.58
     2.399              -45.71          9.864          16.99          33.01         -10.44         -10.42          49.12         -1.764         -106.0          47.63          81.73
     2.442              -46.04          9.172          15.44          32.56          -10.6          -11.0          52.69         -2.583         -105.9          45.55          81.86
     2.484               -46.3          8.627          14.22           32.2         -10.73         -11.46           55.5         -3.228         -105.7          43.91          81.95
     2.526              -46.51          8.195          13.25          31.92         -10.84         -11.82          57.73         -3.739         -105.6          42.61          82.03
     2.568              -46.67          7.848          12.48          31.69         -10.92         -12.12          59.52          -4.15         -105.5          41.57          82.09
      2.61              -46.81          7.567          11.85          31.51         -10.98         -12.35          60.97         -4.482         -105.5          40.73          82.14
     2.652              -46.92          7.337          11.34          31.36         -11.04         -12.54          62.16         -4.754         -105.4          40.04          82.18
     2.694              -47.01          7.147          10.91          31.24         -11.08          -12.7          63.14         -4.979         -105.3          39.47          82.22
